<?xml version="1.0" encoding="UTF-8" standalone="no"?>
<svg width="350" height="350" viewBox="0 0 133 133" fill="none" xmlns="http://www.w3.org/2000/svg">
<g clip-path="url(#clip0_1_2450)">
<path d="M102.793 40.8562L91.473 46.1575C90.624 46.5551 89.7929 46.2542 89.3953 45.4052C88.9977 44.5562 89.2987 43.7251 90.1477 43.3275L101.468 38.0262C102.317 37.6286 103.148 37.9295 103.546 38.7785C103.943 39.6275 103.642 40.4586 102.793 40.8562ZM89.1233 39.6664C88.5573 39.9315 87.8587 39.9135 87.3107 39.48C86.6301 38.7636 86.648 38.065 87.2319 37.1014L92.6987 31.0906C93.4152 30.41 94.1137 30.4279 95.0773 31.0119C95.7579 31.7283 95.74 32.4269 95.156 33.3905L89.6893 39.4013L89.1233 39.6664ZM103.072 51.7678L102.506 52.0329L94.3887 52.3836C93.4072 52.4982 92.7266 51.7817 92.612 50.8002C92.4974 49.8187 93.2139 49.1381 94.1954 49.0235L102.313 48.6727C103.294 48.5581 103.975 49.2746 104.09 50.2561C104.072 50.9547 103.638 51.5027 103.072 51.7678ZM63.2423 111.139L57.5822 113.789C56.7332 114.187 55.9022 113.886 55.5046 113.037L38.0959 83.232C37.9633 82.949 37.6983 82.383 37.8487 81.9674C37.9992 81.5519 38.1497 81.1364 38.7157 80.8713L47.2058 76.8953C48.0548 76.4977 48.8859 76.7986 49.2835 77.6477L63.8621 108.778C64.3923 109.91 64.0913 110.741 63.2423 111.139ZM57.6719 110.297L60.502 108.971L47.2486 80.671L41.5886 83.3217L57.6719 110.297ZM34.8722 72.6642L29.2121 75.3149C28.3631 75.7125 27.5321 75.4115 27.1345 74.5625C26.7369 73.7135 27.0378 72.8824 27.8868 72.4848L33.5469 69.8341C34.3959 69.4365 35.227 69.7375 35.6246 70.5865C36.0222 71.4355 35.7212 72.2666 34.8722 72.6642ZM37.5229 78.3243L31.8628 80.9749C31.0138 81.3725 30.1827 81.0716 29.7851 80.2226C29.3875 79.3736 29.6885 78.5425 30.5375 78.1449L36.1976 75.4942C37.0466 75.0966 37.8776 75.3976 38.2752 76.2466C38.6728 77.0956 38.3719 77.9267 37.5229 78.3243ZM32.2216 67.0041L26.5615 69.6548C25.7125 70.0524 24.8814 69.7514 24.4838 68.9024C24.0862 68.0534 24.3871 67.2223 25.2361 66.8247L30.8962 64.1741C31.7452 63.7765 32.5763 64.0774 32.9739 64.9264C33.3715 65.7754 33.0706 66.6065 32.2216 67.0041Z" fill="white"/>
<path d="M51.4937 78.683L37.3435 85.3097C35.0795 86.3699 32.1707 85.3166 31.1105 83.0526L23.1585 66.0724C22.0982 63.8083 23.1515 60.8996 25.4155 59.8393L39.5657 53.2127C40.4147 52.8151 41.2458 53.116 41.6434 53.965L52.2461 76.6053C52.6437 77.4543 52.3427 78.2854 51.4937 78.683ZM26.7409 62.6694C25.8919 63.067 25.5909 63.898 25.9885 64.747L33.9405 81.7273C34.3381 82.5763 35.1692 82.8772 36.0182 82.4796L48.7534 76.5156L39.476 56.7054L26.7409 62.6694ZM89.2508 78.2545C86.9868 79.3148 84.078 78.2615 83.0178 75.9975L61.8124 30.7169C60.7522 28.4528 61.8055 25.5441 64.0695 24.4838C66.3335 23.4235 69.2423 24.4768 70.3026 26.7409L91.5079 72.0215C92.5681 74.2855 91.7978 77.0617 89.2508 78.2545ZM65.3948 27.3138C64.5458 27.7114 64.2449 28.5425 64.6425 29.3915L85.8478 74.6722C86.2454 75.5212 87.0765 75.8221 87.9255 75.4245C88.7745 75.0269 89.0754 74.1958 88.6778 73.3468L67.4725 28.0662C67.0749 27.2172 66.2438 26.9162 65.3948 27.3138Z" fill="white"/>
<path d="M83.7701 73.9198L83.2041 74.1849L59.7008 74.8395L51.4937 78.683C50.6447 79.0806 49.8136 78.7797 49.416 77.9307L38.8133 55.2903C38.4157 54.4413 38.7167 53.6103 39.5657 53.2127L47.7728 49.3692L63.3241 31.7343C63.7575 31.1862 64.1731 31.3367 64.7391 31.0716C65.1546 31.2221 65.5702 31.3726 65.8352 31.9386L84.3899 71.5591C84.655 72.1251 84.5045 72.5407 84.354 72.9562C84.3361 73.6547 84.0531 73.7873 83.7701 73.9198ZM51.5834 75.1903L59.2245 71.6119L80.6321 70.9034L64.198 35.8109L49.9471 51.8016L42.306 55.38L51.5834 75.1903ZM29.2121 75.3148L26.3821 76.6402C24.1181 77.7004 21.2093 76.6472 20.149 74.3831L18.8237 71.5531C17.7634 69.2891 18.8167 66.3803 21.0808 65.32L23.9108 63.9947C24.7598 63.5971 25.5909 63.898 25.9885 64.747L29.9645 73.2372C30.3621 74.0862 30.0611 74.9172 29.2121 75.3148ZM22.4061 68.1501C21.5571 68.5477 21.2561 69.3787 21.6537 70.2278L22.9791 73.0578C23.3767 73.9068 24.2077 74.2077 25.0568 73.8101L26.4718 73.1475L23.8211 67.4874L22.4061 68.1501ZM85.4541 62.779C84.6051 63.1766 83.7741 62.8757 83.3765 62.0267C82.9789 61.1777 83.2798 60.3466 84.1288 59.949C86.3928 58.8887 87.4461 55.98 86.3859 53.7159L81.0845 42.3958C80.0243 40.1317 77.1155 39.0784 74.8515 40.1387C74.0025 40.5363 73.1714 40.2354 72.7738 39.3864C72.3762 38.5374 72.6771 37.7063 73.5262 37.3087C77.4882 35.4532 82.0591 37.1084 83.9146 41.0704L89.2159 52.3906C91.0714 56.3526 89.4162 60.9236 85.4541 62.779Z" fill="white"/>
</g>
<defs>
<clipPath id="clip0_1_2450">
<rect width="100" height="100" fill="white" transform="translate(0 42.4106) rotate(-25.0941)"/>
</clipPath>
</defs>
</svg>
